<svg xmlns="http://www.w3.org/2000/svg" version="1.1" xmlns:xlink="http://www.w3.org/1999/xlink" xmlns:svgjs="http://svgjs.dev/svgjs" width="1000" height="1000" viewBox="0 0 1000 1000"><rect width="1000" height="1000" fill="#90adbb"></rect><g transform="matrix(0.7,0,0,0.7,150.71122042705582,84.8863967611336)"><svg viewBox="0 0 208 247" data-background-color="#90adbb" preserveAspectRatio="xMidYMid meet" height="1187" width="1000" xmlns="http://www.w3.org/2000/svg" xmlns:xlink="http://www.w3.org/1999/xlink"><g id="tight-bounds" transform="matrix(1,0,0,1,-0.21133406975371827,-0.09999999999999432)"><svg viewBox="0 0 208.42266813950746 247.2" height="247.2" width="208.42266813950746"><g><svg viewBox="0 0 397.4975999999999 471.45259005238734" height="247.2" width="208.42266813950746"><g><rect width="397.4975999999999" height="14.863405922788115" x="0" y="218.54418889288195" fill="#f6f6f6" opacity="1" stroke-width="0" stroke="transparent" fill-opacity="1" class="rect-qz-0" data-fill-palette-color="primary" rx="1%" id="qz-0" data-palette-color="#f6f6f6"></rect></g><g><rect width="397.4975999999999" height="14.863405922788115" x="0" y="252.86231460989535" fill="#f6f6f6" opacity="1" stroke-width="0" stroke="transparent" fill-opacity="1" class="rect-qz-1" data-fill-palette-color="primary" rx="1%" id="qz-1" data-palette-color="#f6f6f6"></rect></g><g transform="matrix(1,0,0,1,0.9887999999999693,306.635160121134)"><svg viewBox="0 0 395.52 164.81742993125332" height="164.81742993125332" width="395.52"><g id="textblocktransform"><svg viewBox="0 0 395.52 164.81742993125332" height="164.81742993125332" width="395.52" id="textblock"><g><svg viewBox="0 0 395.52 164.81742993125332" height="164.81742993125332" width="395.52"><g transform="matrix(1,0,0,1,0,0)"><svg width="395.52" viewBox="2.55 -38.8 94.54 39.4" height="164.81742993125332" data-palette-color="#f6f6f6"><path d="M15.3 0.6L15.3 0.6Q12.15 0.6 9.78-0.4 7.4-1.4 5.78-3.2 4.15-5 3.35-7.48 2.55-9.95 2.55-12.95L2.55-12.95Q2.55-15.95 3.43-18.45 4.3-20.95 5.9-22.78 7.5-24.6 9.83-25.63 12.15-26.65 15-26.65L15-26.65Q16.75-26.65 18.5-26.35 20.25-26.05 21.85-25.4L21.85-25.4 20.8-21.45Q19.75-21.95 18.38-22.25 17-22.55 15.45-22.55L15.45-22.55Q11.55-22.55 9.47-20.1 7.4-17.65 7.4-12.95L7.4-12.95Q7.4-10.85 7.88-9.1 8.35-7.35 9.38-6.1 10.4-4.85 12-4.17 13.6-3.5 15.9-3.5L15.9-3.5Q17.75-3.5 19.25-3.85 20.75-4.2 21.6-4.6L21.6-4.6 22.25-0.7Q21.85-0.45 21.1-0.23 20.35 0 19.4 0.18 18.45 0.35 17.38 0.48 16.3 0.6 15.3 0.6ZM31.9 0L27.25 0 27.25-38 31.9-38.8 31.9-25.5Q33.2-26 34.67-26.28 36.15-26.55 37.6-26.55L37.6-26.55Q40.7-26.55 42.75-25.68 44.8-24.8 46.02-23.23 47.25-21.65 47.75-19.45 48.25-17.25 48.25-14.6L48.25-14.6 48.25 0 43.6 0 43.6-13.6Q43.6-16 43.27-17.7 42.95-19.4 42.2-20.45 41.45-21.5 40.2-21.98 38.95-22.45 37.1-22.45L37.1-22.45Q36.35-22.45 35.55-22.35 34.75-22.25 34.02-22.13 33.3-22 32.72-21.85 32.15-21.7 31.9-21.6L31.9-21.6 31.9 0ZM64.59-3.35L64.59-3.35Q66.25-3.35 67.52-3.43 68.8-3.5 69.65-3.7L69.65-3.7 69.65-11.45Q69.15-11.7 68.02-11.88 66.9-12.05 65.3-12.05L65.3-12.05Q64.25-12.05 63.07-11.9 61.9-11.75 60.92-11.28 59.95-10.8 59.3-9.98 58.65-9.15 58.65-7.8L58.65-7.8Q58.65-5.3 60.25-4.33 61.84-3.35 64.59-3.35ZM64.2-26.65L64.2-26.65Q67-26.65 68.92-25.93 70.84-25.2 72.02-23.88 73.2-22.55 73.7-20.73 74.2-18.9 74.2-16.7L74.2-16.7 74.2-0.45Q73.59-0.35 72.52-0.18 71.45 0 70.09 0.15 68.75 0.3 67.17 0.43 65.59 0.55 64.05 0.55L64.05 0.55Q61.84 0.55 60 0.1 58.15-0.35 56.8-1.33 55.45-2.3 54.7-3.9 53.95-5.5 53.95-7.75L53.95-7.75Q53.95-9.9 54.82-11.45 55.7-13 57.2-13.95 58.7-14.9 60.7-15.35 62.7-15.8 64.9-15.8L64.9-15.8Q65.59-15.8 66.34-15.73 67.09-15.65 67.77-15.53 68.45-15.4 68.95-15.3 69.45-15.2 69.65-15.15L69.65-15.15 69.65-16.45Q69.65-17.6 69.4-18.73 69.15-19.85 68.5-20.73 67.84-21.6 66.72-22.13 65.59-22.65 63.8-22.65L63.8-22.65Q61.5-22.65 59.77-22.33 58.05-22 57.2-21.65L57.2-21.65 56.65-25.5Q57.55-25.9 59.65-26.28 61.75-26.65 64.2-26.65ZM86.24-34.05L86.24-26 96.09-26 96.09-22.1 86.24-22.1 86.24-10.1Q86.24-8.15 86.54-6.88 86.84-5.6 87.44-4.88 88.04-4.15 88.94-3.85 89.84-3.55 91.04-3.55L91.04-3.55Q93.14-3.55 94.42-4.03 95.69-4.5 96.19-4.7L96.19-4.7 97.09-0.85Q96.39-0.5 94.64 0.03 92.89 0.55 90.64 0.55L90.64 0.55Q87.99 0.55 86.27-0.13 84.54-0.8 83.49-2.15 82.44-3.5 82.02-5.48 81.59-7.45 81.59-10.05L81.59-10.05 81.59-33.25 86.24-34.05Z" opacity="1" transform="matrix(1,0,0,1,0,0)" fill="#f6f6f6" class="wordmark-text-0" data-fill-palette-color="primary" id="text-0"></path></svg></g></svg></g></svg></g></svg></g><g transform="matrix(1,0,0,1,76.53311999999997,0)"><svg viewBox="0 0 244.43135999999998 179.63474930443138" height="179.63474930443138" width="244.43135999999998"><g><svg xmlns="http://www.w3.org/2000/svg" xmlns:xlink="http://www.w3.org/1999/xlink" version="1.1" x="0" y="0" viewBox="7.551999999999996 18.479000000000003 87.46799999999999 64.281" enable-background="new 0 0 100 100" xml:space="preserve" height="179.63474930443138" width="244.43135999999998" class="icon-icon-0" data-fill-palette-color="accent" id="icon-0"><path d="M31.805 41.953c0-5.497 2.443-10.57 6.546-14.639-0.238-0.004-0.474-0.013-0.712-0.013-16.615 0-30.087 9.948-30.087 22.221 0 9.36 7.837 17.36 18.926 20.634l-0.585 12.604 8.693-11.016c0 0 1.642 0 3.053 0 7.925 0 15.129-2.267 20.502-5.965C43.185 63.725 31.805 53.826 31.805 41.953z" fill="#f6f6f6" data-fill-palette-color="accent"></path><g fill="#f6f6f6" data-fill-palette-color="accent"><path d="M76.966 82.062l-11.95-15.139h-2.081c-17.693 0-32.089-10.865-32.089-24.223 0-13.355 14.396-24.221 32.089-24.221 17.691 0 32.085 10.866 32.085 24.221 0 9.637-7.348 18.172-18.857 22.078L76.966 82.062zM62.935 22.48c-15.487 0-28.089 9.071-28.089 20.221 0 11.15 12.602 20.223 28.089 20.223h4.021l5.437 6.889-0.369-7.949 1.504-0.443C84.153 58.281 91.02 50.934 91.02 42.701 91.02 31.551 78.421 22.48 62.935 22.48z" fill="#f6f6f6" data-fill-palette-color="accent"></path></g></svg></g></svg></g><g></g></svg></g><defs></defs></svg><rect width="208.42266813950746" height="247.2" fill="none" stroke="none" visibility="hidden"></rect></g></svg></g></svg>